<?xml version="1.0" ?><svg viewBox="0 0 64 64" xmlns="http://www.w3.org/2000/svg"><title/><g id="Outline"><path d="M52.74,18.41c-1.27-.18-4.32-.92-5.91-1.31a10.85,10.85,0,0,0-4.12-5.88,13.31,13.31,0,0,0-6.93-2.89A10.11,10.11,0,0,0,27,11.52a15.39,15.39,0,0,0-3.65,11.65,11.72,11.72,0,0,0,2.64,5c1.41,1.82,1.46,2.12,1,2.51-1.68,1.55-7.63.86-9.84-.75-4.55-3.32-7.43-4.32-9.33-3.24C5.38,28.05,5.55,32.41,6,37.14c1,11.1,11.93,18.15,21.51,18.32h.66c11.91,0,21.13-5.84,21.57-13.74.29-5.36-2.59-8.4-4.69-10.61a7.59,7.59,0,0,1-2-2.75,1.94,1.94,0,0,1,.31-1.5,4.33,4.33,0,0,0,.75.19,10.48,10.48,0,0,0,1.64.14,11.62,11.62,0,0,0,9-4.84,2.53,2.53,0,0,0,.19-2.44A2.71,2.71,0,0,0,52.74,18.41Zm-.22,2a39.59,39.59,0,0,1-9.57.79c.6-1.33,1.66-2.38,2.38-2.38h.06c.62.15,5.3,1.33,7.07,1.58Zm-9,12.09c2.06,2.17,4.39,4.63,4.14,9.13-.38,6.84-9.25,12.06-20.19,11.84C16.31,53.26,8.64,44.74,8,37c-.22-2.49-.68-7.69.83-8.54.61-.34,2.35-.4,7.17,3.12,2.67,2,9.8,3,12.38.6,1.88-1.74.39-3.66-.81-5.2a10,10,0,0,1-2.25-4.13,13.59,13.59,0,0,1,3.15-9.93,8.08,8.08,0,0,1,7.15-2.56,11.24,11.24,0,0,1,5.89,2.47,9.92,9.92,0,0,1,3.22,4.1c-1.91.45-3.62,2.77-4.07,5.05h0a1.55,1.55,0,0,0,0,.23,4.14,4.14,0,0,0,1,3.66A3.92,3.92,0,0,0,41,28.8C41.32,30.13,42.36,31.23,43.56,32.49Zm.81-7.4a1.93,1.93,0,0,1-1.86-1.92c.49,0,1.15.07,2,.07a43,43,0,0,0,7.4-.69A8.86,8.86,0,0,1,44.37,25.09Z"/><circle cx="38.5" cy="16.5" r="1.5"/><path d="M37.83,37.8A1,1,0,0,0,37,38.91a6.19,6.19,0,0,1-1.4,4.78C34.19,45.2,31.94,46,28.84,45.9A12.15,12.15,0,0,1,18.4,39.36a14.51,14.51,0,0,1,8.72-.31,1,1,0,1,0,.71-1.86c-.19-.08-4.82-1.8-11.19.67a1,1,0,0,0-.57,1.31c.15.36,3.63,8.63,12.74,8.73h.24c3.57,0,6.26-1,8-2.88a8.2,8.2,0,0,0,1.9-6.34A1,1,0,0,0,37.83,37.8Z"/></g></svg>